<?xml version="1.0" encoding="UTF-8" standalone="no"?>
<!DOCTYPE svg PUBLIC "-//W3C//DTD SVG 1.1//EN" "http://www.w3.org/Graphics/SVG/1.1/DTD/svg11.dtd">
<!-- Created with Vectornator (http://vectornator.io/) -->
<svg height="100%" stroke-miterlimit="10" style="fill-rule:nonzero;clip-rule:evenodd;stroke-linecap:round;stroke-linejoin:round;" version="1.1" viewBox="0 0 1389.15 992.25" width="100%" xml:space="preserve" xmlns="http://www.w3.org/2000/svg" xmlns:vectornator="http://vectornator.io" xmlns:xlink="http://www.w3.org/1999/xlink">
<defs/>
<g id="Camada-5" vectornator:layerName="Camada 5">
<g opacity="1">
<path d="M761.035 501.984C761.035 501.984 632.887 668.029 412.088 698.756C191.286 729.491 28.8659 679.233 28.8659 679.233C28.8659 679.233 0.280079 688.574 130.452 729.815C145.435 734.565 160.52 739.015 175.533 743.041C320.974 782.003 459.586 780.78 459.586 780.78C459.586 780.78 594.125 776.238 687.736 724.175C781.339 672.121 834.009 572.554 834.009 572.554L761.035 501.984Z" fill="#000000" fill-rule="nonzero" opacity="1" stroke="#000000" stroke-linecap="butt" stroke-linejoin="miter" stroke-width="13.5093" vectornator:layerName="path"/>
<path d="M963.458 330.546L990.641 416.821L963.258 441.792L919.148 359.427L896.415 272.717L968.532 222.547L963.458 330.546Z" fill="#000000" fill-rule="nonzero" opacity="1" stroke="none" vectornator:layerName="path"/>
<path d="M985.418 403.986L1008.41 453.396L1036.14 517.22L1013.98 568.576L1017.03 513.768L989.219 562.237L1001.62 504.793C1001.62 504.793 969.031 525.047 958.168 531.801L984.336 485.678L946.481 408.861L985.418 403.986Z" fill="#000000" fill-rule="nonzero" opacity="1" stroke="#000000" stroke-linecap="butt" stroke-linejoin="miter" stroke-width="1.31307" vectornator:layerName="path"/>
<path d="M1061.99 80.8397C1061.99 80.8397 773.572 257.695 751.529 316.791C692.205 475.873 658.749 669.551 658.749 669.551C658.749 669.551 715.686 688.366 768.165 680.314C810.387 673.834 848.085 645.021 863.44 612.755C879.652 578.693 860.886 524.434 924.977 370.176C944.981 322.023 1092.21 167.96 1092.21 167.96L1061.99 80.8397Z" fill="#000000" fill-rule="nonzero" opacity="1" stroke="#000000" stroke-linecap="butt" stroke-linejoin="miter" stroke-width="15.5672" vectornator:layerName="path"/>
<path d="M1020.77 314.162L1047.95 400.437L1020.57 425.408L976.457 343.043L953.724 256.333L1025.84 206.163L1020.77 314.162Z" fill="#000000" fill-rule="nonzero" opacity="1" stroke="none" vectornator:layerName="path"/>
<g opacity="1" vectornator:layerName="g">
<path d="M1059.49 72.9582C1059.49 72.9582 1110.09 46.4095 1126.14 42.673C1142.18 38.9365 1159.07 38.3102 1159.07 38.3102L1222.33 50.5702C1222.33 50.5702 1249.49 36.2432 1268.77 45.6459C1288.06 55.0486 1299.48 88.1802 1299.48 88.1802C1299.48 88.1802 1312.3 121.001 1327.61 143.255C1331.14 148.379 1362.48 175.967 1362.48 175.967C1362.48 175.967 1363.7 184.326 1362.2 193.067C1360.7 201.81 1356.47 210.934 1356.47 210.934C1356.47 210.934 1337.63 212.723 1311.36 213.318C1285.09 213.914 1251.4 213.315 1251.4 213.315C1251.4 213.315 1233.66 211.528 1216.13 208.516C1198.59 205.504 1181.25 201.267 1181.25 201.267C1181.25 201.267 1148.13 208.64 1122 209.818C1095.87 210.998 1070.47 207.205 1070.47 207.205L1059.49 72.9582Z" fill="#000000" fill-rule="nonzero" opacity="1" stroke="#000000" stroke-linecap="butt" stroke-linejoin="miter" stroke-width="0.0566256" vectornator:layerName="path"/>
<path d="M1216.19 95.2272C1216.19 75.3621 1232.29 59.2592 1252.15 59.2592C1272.03 59.2592 1288.13 75.3621 1288.13 95.2272C1288.13 115.092 1272.03 131.195 1252.15 131.195C1232.29 131.195 1216.19 115.092 1216.19 95.2272Z" fill="#ffffff" fill-rule="nonzero" opacity="1" stroke="#000000" stroke-linecap="butt" stroke-linejoin="miter" stroke-width="0.0566256" vectornator:layerName="path"/>
<path d="M1256.85 72.9074L1254.37 115.608" fill="none" opacity="1" stroke="#000000" stroke-linecap="round" stroke-linejoin="round" stroke-width="5.71918" vectornator:layerName="path"/>
<path d="M1231.67 180.302L1358.08 198.902" fill="none" opacity="1" stroke="#ffffff" stroke-linecap="round" stroke-linejoin="round" stroke-width="5.71918" vectornator:layerName="path"/>
</g>
<path d="M792.803 771.17C760.778 788.25 747.575 803.8 714.559 840.004C681.542 876.208 666.915 929.118 666.915 929.118C666.915 929.118 671.156 963.98 718.468 932.495C737.475 919.849 779.418 870.391 779.418 870.391L837.636 775.075C837.636 775.075 824.828 754.09 792.803 771.17Z" fill="#000000" fill-rule="nonzero" opacity="1" stroke="#000000" stroke-linecap="butt" stroke-linejoin="miter" stroke-width="1.3201" vectornator:layerName="path"/>
<path d="M1042.73 387.602L1065.72 437.012L1093.45 500.836L1071.29 552.191L1074.34 497.384L1046.53 545.853L1058.93 488.409C1058.93 488.409 1026.34 508.663 1015.48 515.417L1041.65 469.294L1003.79 392.477L1042.73 387.602Z" fill="#000000" fill-rule="nonzero" opacity="1" stroke="#000000" stroke-linecap="butt" stroke-linejoin="miter" stroke-width="1.31307" vectornator:layerName="path"/>
<path d="M732.376 677.831L783.744 777.458C783.744 777.458 835.955 803.519 839.363 764.737C842.771 725.955 797.385 622.332 797.385 622.332C733.599 649.767 732.376 677.831 732.376 677.831Z" fill="#000000" fill-rule="nonzero" opacity="1" stroke="#000000" stroke-linecap="round" stroke-linejoin="miter" stroke-width="1.3201" vectornator:layerName="path"/>
<path d="M716.536 926.707L812.759 926.931L775.91 940.997L813.158 947.028L769.813 953.94C769.813 953.94 708.742 945.023 703.177 945.663C697.612 946.304 679.87 940.523 679.87 940.523L716.536 926.707Z" fill="#000000" fill-rule="nonzero" opacity="1" stroke="#000000" stroke-linecap="butt" stroke-linejoin="miter" stroke-width="1.31307" vectornator:layerName="path"/>
<path d="M869.072 685.89C865.474 722.006 871.064 741.624 882.814 789.192C894.564 836.761 930.422 878.325 930.422 878.325C930.422 878.325 961.761 894.174 961.879 837.343C961.929 814.514 944.121 752.159 944.121 752.159L897.234 650.787C897.234 650.787 872.67 649.773 869.072 685.89Z" fill="#000000" fill-rule="nonzero" opacity="1" stroke="#000000" stroke-linecap="butt" stroke-linejoin="miter" stroke-width="1.3201" vectornator:layerName="path"/>
<path d="M759.039 691.544L871.13 691.366C871.13 691.366 918.165 656.829 885.224 636.079C852.283 615.329 739.371 608.36 739.371 608.36C734.634 677.634 759.039 691.544 759.039 691.544Z" fill="#000000" fill-rule="nonzero" opacity="1" stroke="#000000" stroke-linecap="round" stroke-linejoin="miter" stroke-width="1.3201" vectornator:layerName="path"/>
<path d="M964.128 861.334L1060.32 858.921L1023.87 873.991L1061.27 878.999L1018.13 887.096C1018.13 887.096 956.839 879.857 951.294 880.649C945.749 881.442 927.854 876.15 927.854 876.15L964.128 861.334Z" fill="#000000" fill-rule="nonzero" opacity="1" stroke="#000000" stroke-linecap="butt" stroke-linejoin="miter" stroke-width="1.31307" vectornator:layerName="path"/>
</g>
</g>
</svg>
