<?xml version="1.0" encoding="UTF-8" standalone="no"?>
<!DOCTYPE svg PUBLIC "-//W3C//DTD SVG 1.1//EN" "http://www.w3.org/Graphics/SVG/1.1/DTD/svg11.dtd">
<!-- Created with Vectornator (http://vectornator.io/) -->
<svg height="100%" stroke-miterlimit="10" style="fill-rule:nonzero;clip-rule:evenodd;stroke-linecap:round;stroke-linejoin:round;" version="1.1" viewBox="0 0 1389.15 992.25" width="100%" xml:space="preserve" xmlns="http://www.w3.org/2000/svg" xmlns:vectornator="http://vectornator.io" xmlns:xlink="http://www.w3.org/1999/xlink">
<defs/>
<g id="Quadro-1" vectornator:layerName="Quadro 1">
<g opacity="1">
<path d="M760.629 523.484C760.629 523.484 632.481 689.529 411.682 720.256C190.88 750.991 28.4601 700.733 28.4601 700.733C28.4601 700.733-0.125637 710.075 130.047 751.315C145.029 756.065 160.115 760.515 175.127 764.541C320.568 803.503 459.181 802.28 459.181 802.28C459.181 802.28 593.719 797.738 687.33 745.676C780.933 693.621 833.603 594.055 833.603 594.055L760.629 523.484Z" fill="#000000" fill-rule="nonzero" opacity="1" stroke="#000000" stroke-linecap="butt" stroke-linejoin="miter" stroke-width="13.5093" vectornator:layerName="path"/>
<path d="M1061.59 102.34C1061.59 102.34 773.166 279.195 751.123 338.291C691.799 497.374 658.344 691.051 658.344 691.051C658.344 691.051 715.281 709.866 767.759 701.814C809.981 695.335 847.679 666.521 863.034 634.255C879.246 600.193 860.48 545.934 924.571 391.676C944.576 343.523 1091.8 189.461 1091.8 189.461L1061.59 102.34Z" fill="#000000" fill-rule="nonzero" opacity="1" stroke="#000000" stroke-linecap="butt" stroke-linejoin="miter" stroke-width="15.5672" vectornator:layerName="path"/>
<path d="M1020.36 335.663L1047.54 421.937L1020.16 446.908L976.051 364.543L953.318 277.833L1025.44 227.663L1020.36 335.663Z" fill="#000000" fill-rule="nonzero" opacity="1" stroke="none" vectornator:layerName="path"/>
<g opacity="1" vectornator:layerName="g">
<path d="M1059.9 92.4574C1059.9 92.4574 1110.5 65.9087 1126.54 62.1722C1142.59 58.4358 1159.48 57.8094 1159.48 57.8094L1222.73 70.0694C1222.73 70.0694 1249.9 55.7424 1269.18 65.1451C1288.47 74.5478 1299.88 107.679 1299.88 107.679C1299.88 107.679 1312.71 140.501 1328.02 162.754C1331.55 167.879 1362.88 195.466 1362.88 195.466C1362.88 195.466 1364.1 203.825 1362.61 212.567C1361.1 221.309 1356.88 230.433 1356.88 230.433C1356.88 230.433 1338.04 232.222 1311.77 232.818C1285.5 233.413 1251.8 232.814 1251.8 232.814C1251.8 232.814 1234.07 231.027 1216.53 228.015C1199 225.003 1181.66 220.766 1181.66 220.766C1181.66 220.766 1148.53 228.139 1122.41 229.317C1096.28 230.497 1070.88 226.705 1070.88 226.705L1059.9 92.4574Z" fill="#000000" fill-rule="nonzero" opacity="1" stroke="#000000" stroke-linecap="butt" stroke-linejoin="miter" stroke-width="0.0566256" vectornator:layerName="path"/>
<path d="M1216.59 114.726C1216.59 94.8613 1232.7 78.7584 1252.56 78.7584C1272.43 78.7584 1288.53 94.8613 1288.53 114.726C1288.53 134.591 1272.43 150.694 1252.56 150.694C1232.7 150.694 1216.59 134.591 1216.59 114.726Z" fill="#ffffff" fill-rule="nonzero" opacity="1" stroke="#000000" stroke-linecap="butt" stroke-linejoin="miter" stroke-width="0.0566256" vectornator:layerName="path"/>
<path d="M1257.25 92.4066L1254.78 135.107" fill="none" opacity="1" stroke="#000000" stroke-linecap="round" stroke-linejoin="round" stroke-width="5.71918" vectornator:layerName="path"/>
<path d="M1232.08 199.802L1358.48 218.401" fill="none" opacity="1" stroke="#ffffff" stroke-linecap="round" stroke-linejoin="round" stroke-width="5.71918" vectornator:layerName="path"/>
</g>
<path d="M909.529 681.821C892.814 714.038 890.742 734.332 884.044 782.87C877.345 831.408 895.264 883.295 895.264 883.295C895.264 883.295 918.507 909.622 939.66 856.874C948.159 835.687 954.706 771.17 954.706 771.17L948.687 659.642C948.687 659.642 926.245 649.605 909.529 681.821Z" fill="#000000" fill-rule="nonzero" opacity="1" stroke="#000000" stroke-linecap="butt" stroke-linejoin="miter" stroke-width="1.3201" vectornator:layerName="path"/>
<path d="M1042.32 409.103L1065.31 458.512L1093.04 522.336L1070.89 573.692L1073.94 518.884L1046.12 567.353L1058.52 509.909C1058.52 509.909 1025.93 530.163 1015.07 536.918L1041.24 490.794L1003.38 413.977L1042.32 409.103Z" fill="#000000" fill-rule="nonzero" opacity="1" stroke="#000000" stroke-linecap="butt" stroke-linejoin="miter" stroke-width="1.31307" vectornator:layerName="path"/>
<path d="M805.013 681.644L915.785 698.79C915.785 698.79 967.592 671.937 938.253 646.346C908.914 620.754 798.436 596.42 798.436 596.42C783.051 664.13 805.013 681.644 805.013 681.644Z" fill="#000000" fill-rule="nonzero" opacity="1" stroke="#000000" stroke-linecap="round" stroke-linejoin="miter" stroke-width="1.3201" vectornator:layerName="path"/>
<path d="M935.702 876.114L1031.93 876.338L995.076 890.404L1032.32 896.434L988.979 903.347C988.979 903.347 927.908 894.43 922.343 895.07C916.778 895.711 899.036 889.93 899.036 889.93L935.702 876.114Z" fill="#000000" fill-rule="nonzero" opacity="1" stroke="#000000" stroke-linecap="butt" stroke-linejoin="miter" stroke-width="1.31307" vectornator:layerName="path"/>
<path d="M774.092 766.834C740.333 780.163 725.448 794.111 688.53 826.328C651.612 858.544 631.066 909.448 631.066 909.448C631.066 909.448 631.316 944.567 681.901 918.663C702.221 908.26 749.515 863.891 749.515 863.891L818.19 775.81C818.19 775.81 807.851 753.505 774.092 766.834Z" fill="#000000" fill-rule="nonzero" opacity="1" stroke="#000000" stroke-linecap="butt" stroke-linejoin="miter" stroke-width="1.3201" vectornator:layerName="path"/>
<path d="M727.938 671.815L762.672 778.389C762.672 778.389 810.031 812.481 819.611 774.747C829.192 737.013 801.003 627.454 801.003 627.454C733.644 644.31 727.938 671.815 727.938 671.815Z" fill="#000000" fill-rule="nonzero" opacity="1" stroke="#000000" stroke-linecap="round" stroke-linejoin="miter" stroke-width="1.3201" vectornator:layerName="path"/>
<path d="M672.797 909.491L768.943 905.635L732.723 921.251L770.194 925.696L727.181 934.441C727.181 934.441 665.786 928.121 660.254 928.997C654.721 929.873 636.75 924.85 636.75 924.85L672.797 909.491Z" fill="#000000" fill-rule="nonzero" opacity="1" stroke="#000000" stroke-linecap="butt" stroke-linejoin="miter" stroke-width="1.31307" vectornator:layerName="path"/>
</g>
</g>
</svg>
