<?xml version="1.0" encoding="UTF-8" standalone="no"?>
<!DOCTYPE svg PUBLIC "-//W3C//DTD SVG 1.1//EN" "http://www.w3.org/Graphics/SVG/1.1/DTD/svg11.dtd">
<!-- Created with Vectornator (http://vectornator.io/) -->
<svg height="100%" stroke-miterlimit="10" style="fill-rule:nonzero;clip-rule:evenodd;stroke-linecap:round;stroke-linejoin:round;" version="1.1" viewBox="0 0 1389.15 992.25" width="100%" xml:space="preserve" xmlns="http://www.w3.org/2000/svg" xmlns:vectornator="http://vectornator.io" xmlns:xlink="http://www.w3.org/1999/xlink">
<defs/>
<g id="Camada-4" vectornator:layerName="Camada 4">
<g opacity="1">
<path d="M976.957 373.893L1004.14 460.168L976.757 485.139L932.647 402.773L909.914 316.064L982.031 265.893L976.957 373.893Z" fill="#000000" fill-rule="nonzero" opacity="1" stroke="none" vectornator:layerName="path"/>
<path d="M998.917 447.333L1021.91 496.742L1049.64 560.567L1027.48 611.922L1030.53 557.115L1002.72 605.584L1015.12 548.139C1015.12 548.139 982.53 568.394 971.667 575.148L997.835 529.025L959.98 452.207L998.917 447.333Z" fill="#000000" fill-rule="nonzero" opacity="1" stroke="#000000" stroke-linecap="butt" stroke-linejoin="miter" stroke-width="1.31307" vectornator:layerName="path"/>
<path d="M760.629 523.481C760.629 523.481 632.481 689.526 411.682 720.253C190.88 750.988 28.4601 700.73 28.4601 700.73C28.4601 700.73-0.125637 710.071 130.047 751.312C145.029 756.062 160.115 760.512 175.127 764.538C320.568 803.5 459.181 802.277 459.181 802.277C459.181 802.277 593.719 797.735 687.33 745.673C780.933 693.618 833.603 594.051 833.603 594.051L760.629 523.481Z" fill="#000000" fill-rule="nonzero" opacity="1" stroke="#000000" stroke-linecap="butt" stroke-linejoin="miter" stroke-width="13.5093" vectornator:layerName="path"/>
<path d="M1061.59 102.337C1061.59 102.337 773.166 279.192 751.123 338.288C691.799 497.371 658.344 691.048 658.344 691.048C658.344 691.048 715.281 709.863 767.759 701.811C809.981 695.332 847.679 666.518 863.034 634.252C879.246 600.19 860.48 545.931 924.571 391.673C944.576 343.52 1091.8 189.458 1091.8 189.458L1061.59 102.337Z" fill="#000000" fill-rule="nonzero" opacity="1" stroke="#000000" stroke-linecap="butt" stroke-linejoin="miter" stroke-width="15.5672" vectornator:layerName="path"/>
<path d="M1020.36 335.66L1047.54 421.934L1020.16 446.905L976.051 364.54L953.318 277.83L1025.44 227.66L1020.36 335.66Z" fill="#000000" fill-rule="nonzero" opacity="1" stroke="none" vectornator:layerName="path"/>
<g opacity="1" vectornator:layerName="g">
<path d="M1059.9 92.4542C1059.9 92.4542 1110.5 65.9055 1126.54 62.1691C1142.59 58.4326 1159.48 57.8063 1159.48 57.8063L1222.73 70.0662C1222.73 70.0662 1249.9 55.7392 1269.18 65.142C1288.47 74.5447 1299.88 107.676 1299.88 107.676C1299.88 107.676 1312.71 140.498 1328.02 162.751C1331.55 167.876 1362.88 195.463 1362.88 195.463C1362.88 195.463 1364.1 203.822 1362.61 212.563C1361.1 221.306 1356.88 230.43 1356.88 230.43C1356.88 230.43 1338.04 232.219 1311.77 232.814C1285.5 233.41 1251.8 232.811 1251.8 232.811C1251.8 232.811 1234.07 231.024 1216.53 228.012C1199 225 1181.66 220.763 1181.66 220.763C1181.66 220.763 1148.53 228.136 1122.41 229.314C1096.28 230.494 1070.88 226.702 1070.88 226.702L1059.9 92.4542Z" fill="#000000" fill-rule="nonzero" opacity="1" stroke="#000000" stroke-linecap="butt" stroke-linejoin="miter" stroke-width="0.0566256" vectornator:layerName="path"/>
<path d="M1216.59 114.723C1216.59 94.8581 1232.7 78.7553 1252.56 78.7553C1272.43 78.7553 1288.53 94.8581 1288.53 114.723C1288.53 134.588 1272.43 150.691 1252.56 150.691C1232.7 150.691 1216.59 134.588 1216.59 114.723Z" fill="#ffffff" fill-rule="nonzero" opacity="1" stroke="#000000" stroke-linecap="butt" stroke-linejoin="miter" stroke-width="0.0566256" vectornator:layerName="path"/>
<path d="M1257.25 92.4035L1254.78 135.104" fill="none" opacity="1" stroke="#000000" stroke-linecap="round" stroke-linejoin="round" stroke-width="5.71918" vectornator:layerName="path"/>
<path d="M1232.08 199.799L1358.48 218.398" fill="none" opacity="1" stroke="#ffffff" stroke-linecap="round" stroke-linejoin="round" stroke-width="5.71918" vectornator:layerName="path"/>
</g>
<path d="M826.573 749.157C794.4 765.956 781.062 781.391 747.73 817.305C714.399 853.219 699.309 905.999 699.309 905.999C699.309 905.999 703.245 940.897 750.831 909.826C769.947 897.347 812.321 848.258 812.321 848.258L871.371 753.454C871.371 753.454 858.746 732.358 826.573 749.157Z" fill="#000000" fill-rule="nonzero" opacity="1" stroke="#000000" stroke-linecap="butt" stroke-linejoin="miter" stroke-width="1.3201" vectornator:layerName="path"/>
<path d="M1047.02 417.459L1070.01 466.868L1097.74 530.692L1075.59 582.048L1078.64 527.24L1050.82 575.71L1063.22 518.265C1063.22 518.265 1030.63 538.52 1019.77 545.274L1045.94 499.15L1008.08 422.333L1047.02 417.459Z" fill="#000000" fill-rule="nonzero" opacity="1" stroke="#000000" stroke-linecap="butt" stroke-linejoin="miter" stroke-width="1.31307" vectornator:layerName="path"/>
<path d="M748.966 674.788L819.728 761.72C819.728 761.72 876.182 776.484 871.541 737.83C866.899 699.176 801.17 607.104 801.17 607.104C744.391 647.072 748.966 674.788 748.966 674.788Z" fill="#000000" fill-rule="nonzero" opacity="1" stroke="#000000" stroke-linecap="round" stroke-linejoin="miter" stroke-width="1.3201" vectornator:layerName="path"/>
<path d="M737.388 904.699L833.611 904.923L796.762 918.989L834.01 925.02L790.665 931.932C790.665 931.932 729.594 923.015 724.029 923.655C718.465 924.296 700.722 918.515 700.722 918.515L737.388 904.699Z" fill="#000000" fill-rule="nonzero" opacity="1" stroke="#000000" stroke-linecap="butt" stroke-linejoin="miter" stroke-width="1.31307" vectornator:layerName="path"/>
<path d="M786.881 741.64C756.038 760.771 743.877 777.15 713.292 815.429C682.706 853.709 671.56 907.46 671.56 907.46C671.56 907.46 678.065 941.972 723.223 907.468C741.365 893.61 779.994 841.523 779.994 841.523L831.874 742.613C831.874 742.613 817.725 722.508 786.881 741.64Z" fill="#000000" fill-rule="nonzero" opacity="1" stroke="#000000" stroke-linecap="butt" stroke-linejoin="miter" stroke-width="1.3201" vectornator:layerName="path"/>
<path d="M712.011 666.046L782.772 752.977C782.772 752.977 839.227 767.742 834.585 729.088C829.944 690.434 764.215 598.362 764.215 598.362C707.436 638.33 712.011 666.046 712.011 666.046Z" fill="#000000" fill-rule="nonzero" opacity="1" stroke="#000000" stroke-linecap="round" stroke-linejoin="miter" stroke-width="1.3201" vectornator:layerName="path"/>
<path d="M717.817 907.21L814.04 907.435L777.191 921.501L814.439 927.531L771.094 934.444C771.094 934.444 710.023 925.527 704.458 926.167C698.893 926.808 681.151 921.027 681.151 921.027L717.817 907.21Z" fill="#000000" fill-rule="nonzero" opacity="1" stroke="#000000" stroke-linecap="butt" stroke-linejoin="miter" stroke-width="1.31307" vectornator:layerName="path"/>
<path d="M807.772 850.15L903.968 852.462L866.822 865.726L903.931 872.563L860.446 878.533C860.446 878.533 799.583 868.293 794.005 868.813C788.428 869.333 770.815 863.168 770.815 863.168L807.772 850.15Z" fill="#000000" fill-rule="nonzero" opacity="1" stroke="#000000" stroke-linecap="butt" stroke-linejoin="miter" stroke-width="1.31307" vectornator:layerName="path"/>
</g>
</g>
</svg>
