<?xml version="1.0" encoding="UTF-8" standalone="no"?>
<!DOCTYPE svg PUBLIC "-//W3C//DTD SVG 1.1//EN" "http://www.w3.org/Graphics/SVG/1.1/DTD/svg11.dtd">
<!-- Created with Vectornator (http://vectornator.io/) -->
<svg height="100%" stroke-miterlimit="10" style="fill-rule:nonzero;clip-rule:evenodd;stroke-linecap:round;stroke-linejoin:round;" version="1.1" viewBox="0 0 1389.15 992.25" width="100%" xml:space="preserve" xmlns="http://www.w3.org/2000/svg" xmlns:vectornator="http://vectornator.io" xmlns:xlink="http://www.w3.org/1999/xlink">
<defs/>
<g id="Camada-2" vectornator:layerName="Camada 2">
<g opacity="1">
<path d="M760.629 512.632C760.629 512.632 632.481 678.676 411.682 709.403C190.88 740.138 28.4601 689.881 28.4601 689.881C28.4601 689.881-0.125637 699.222 130.047 740.463C145.029 745.212 160.115 749.663 175.127 753.688C320.568 792.65 459.181 791.427 459.181 791.427C459.181 791.427 593.719 786.886 687.33 734.823C780.933 682.769 833.603 583.202 833.603 583.202L760.629 512.632Z" fill="#000000" fill-rule="nonzero" opacity="1" stroke="#000000" stroke-linecap="butt" stroke-linejoin="miter" stroke-width="13.5093" vectornator:layerName="path"/>
<path d="M1061.59 91.4874C1061.59 91.4874 773.166 268.342 751.123 327.439C691.799 486.521 658.344 680.198 658.344 680.198C658.344 680.198 715.281 699.014 767.759 690.962C809.981 684.482 847.679 655.668 863.034 623.403C879.246 589.34 860.48 535.082 924.571 380.824C944.576 332.671 1091.8 178.608 1091.8 178.608L1061.59 91.4874Z" fill="#000000" fill-rule="nonzero" opacity="1" stroke="#000000" stroke-linecap="butt" stroke-linejoin="miter" stroke-width="15.5672" vectornator:layerName="path"/>
<path d="M1020.36 324.81L1047.54 411.085L1020.16 436.056L976.051 353.69L953.318 266.981L1025.44 216.81L1020.36 324.81Z" fill="#000000" fill-rule="nonzero" opacity="1" stroke="none" vectornator:layerName="path"/>
<g opacity="1" vectornator:layerName="g">
<path d="M1059.9 81.6047C1059.9 81.6047 1110.5 55.0561 1126.54 51.3196C1142.59 47.5831 1159.48 46.9568 1159.48 46.9568L1222.73 59.2167C1222.73 59.2167 1249.9 44.8897 1269.18 54.2925C1288.47 63.6952 1299.88 96.8268 1299.88 96.8268C1299.88 96.8268 1312.71 129.648 1328.02 151.901C1331.55 157.026 1362.88 184.614 1362.88 184.614C1362.88 184.614 1364.1 192.972 1362.61 201.714C1361.1 210.456 1356.88 219.58 1356.88 219.58C1356.88 219.58 1338.04 221.369 1311.77 221.965C1285.5 222.561 1251.8 221.962 1251.8 221.962C1251.8 221.962 1234.07 220.174 1216.53 217.162C1199 214.15 1181.66 209.914 1181.66 209.914C1181.66 209.914 1148.53 217.286 1122.41 218.465C1096.28 219.644 1070.88 215.852 1070.88 215.852L1059.9 81.6047Z" fill="#000000" fill-rule="nonzero" opacity="1" stroke="#000000" stroke-linecap="butt" stroke-linejoin="miter" stroke-width="0.0566256" vectornator:layerName="path"/>
<path d="M1216.59 103.874C1216.59 84.0087 1232.7 67.9058 1252.56 67.9058C1272.43 67.9058 1288.53 84.0087 1288.53 103.874C1288.53 123.738 1272.43 139.842 1252.56 139.842C1232.7 139.842 1216.59 123.738 1216.59 103.874Z" fill="#ffffff" fill-rule="nonzero" opacity="1" stroke="#000000" stroke-linecap="butt" stroke-linejoin="miter" stroke-width="0.0566256" vectornator:layerName="path"/>
<path d="M1257.25 81.554L1254.78 124.255" fill="none" opacity="1" stroke="#000000" stroke-linecap="round" stroke-linejoin="round" stroke-width="5.71918" vectornator:layerName="path"/>
<path d="M1232.08 188.949L1358.48 207.548" fill="none" opacity="1" stroke="#ffffff" stroke-linecap="round" stroke-linejoin="round" stroke-width="5.71918" vectornator:layerName="path"/>
</g>
<path d="M896.521 718.269C879.806 750.486 877.734 770.78 871.036 819.318C864.337 867.856 882.256 919.744 882.256 919.744C882.256 919.744 905.499 946.07 926.652 893.322C935.151 872.135 941.698 807.618 941.698 807.618L935.679 696.09C935.679 696.09 913.237 686.053 896.521 718.269Z" fill="#000000" fill-rule="nonzero" opacity="1" stroke="#000000" stroke-linecap="butt" stroke-linejoin="miter" stroke-width="1.3201" vectornator:layerName="path"/>
<path d="M1042.32 398.25L1065.31 447.659L1093.04 511.484L1070.89 562.839L1073.94 508.032L1046.12 556.501L1058.52 499.056C1058.52 499.056 1025.93 519.311 1015.07 526.065L1041.24 479.942L1003.38 403.124L1042.32 398.25Z" fill="#000000" fill-rule="nonzero" opacity="1" stroke="#000000" stroke-linecap="butt" stroke-linejoin="miter" stroke-width="1.31307" vectornator:layerName="path"/>
<path d="M795.293 688.456L899.075 730.806C899.075 730.806 955.695 716.69 933.086 684.996C910.477 653.302 808.645 604.028 808.645 604.028C777.988 666.328 795.293 688.456 795.293 688.456Z" fill="#000000" fill-rule="nonzero" opacity="1" stroke="#000000" stroke-linecap="round" stroke-linejoin="miter" stroke-width="1.3201" vectornator:layerName="path"/>
<path d="M917.601 908.055L1013.82 908.279L976.975 922.345L1014.22 928.376L970.878 935.288C970.878 935.288 909.807 926.371 904.242 927.011C898.678 927.652 880.935 921.871 880.935 921.871L917.601 908.055Z" fill="#000000" fill-rule="nonzero" opacity="1" stroke="#000000" stroke-linecap="butt" stroke-linejoin="miter" stroke-width="1.31307" vectornator:layerName="path"/>
<path d="M775.764 757.749C739.623 761.088 721.426 770.31 676.963 790.896C632.499 811.481 598.516 854.593 598.516 854.593C598.516 854.593 588.92 888.376 644.735 877.678C667.156 873.383 724.985 844.037 724.985 844.037L815.583 778.718C815.583 778.718 814.871 774.011 810.994 769.024C806.06 762.679 796.001 755.879 775.764 757.749Z" fill="#000000" fill-rule="nonzero" opacity="1" stroke="#000000" stroke-linecap="butt" stroke-linejoin="miter" stroke-width="1.3201" vectornator:layerName="path"/>
<path d="M727.938 660.963L762.672 767.536C762.672 767.536 810.031 801.629 819.611 763.894C829.192 726.16 801.003 616.602 801.003 616.602C733.644 633.458 727.938 660.963 727.938 660.963Z" fill="#000000" fill-rule="nonzero" opacity="1" stroke="#000000" stroke-linecap="round" stroke-linejoin="miter" stroke-width="1.3201" vectornator:layerName="path"/>
<path d="M641.2 877.745L723.311 927.912L684.516 920.794L713.215 945.293L672.584 928.688C672.584 928.688 625.027 889.35 619.939 887.007C614.851 884.664 602.691 870.509 602.691 870.509L641.2 877.745Z" fill="#000000" fill-rule="nonzero" opacity="1" stroke="#000000" stroke-linecap="butt" stroke-linejoin="miter" stroke-width="1.31307" vectornator:layerName="path"/>
</g>
</g>
</svg>
