<?xml version="1.0" encoding="UTF-8" standalone="no"?>
<!DOCTYPE svg PUBLIC "-//W3C//DTD SVG 1.1//EN" "http://www.w3.org/Graphics/SVG/1.1/DTD/svg11.dtd">
<!-- Created with Vectornator (http://vectornator.io/) -->
<svg height="100%" stroke-miterlimit="10" style="fill-rule:nonzero;clip-rule:evenodd;stroke-linecap:round;stroke-linejoin:round;" version="1.1" viewBox="0 0 1389.15 992.25" width="100%" xml:space="preserve" xmlns="http://www.w3.org/2000/svg" xmlns:vectornator="http://vectornator.io" xmlns:xlink="http://www.w3.org/1999/xlink">
<defs/>
<g id="Camada-6" vectornator:layerName="Camada 6">
<g opacity="1">
<path d="M760.629 509.099C760.629 509.099 632.481 675.144 411.682 705.87C190.88 736.606 28.4601 686.348 28.4601 686.348C28.4601 686.348-0.125637 695.689 130.047 736.93C145.029 741.68 160.115 746.13 175.127 750.156C320.568 789.117 459.181 787.895 459.181 787.895C459.181 787.895 593.719 783.353 687.33 731.29C780.933 679.236 833.603 579.669 833.603 579.669L760.629 509.099Z" fill="#000000" fill-rule="nonzero" opacity="1" stroke="#000000" stroke-linecap="butt" stroke-linejoin="miter" stroke-width="13.5093" vectornator:layerName="path"/>
<path d="M1061.59 87.9547C1061.59 87.9547 773.166 264.809 751.123 323.906C691.799 482.988 658.344 676.666 658.344 676.666C658.344 676.666 715.281 695.481 767.759 687.429C809.981 680.949 847.679 652.136 863.034 619.87C879.246 585.808 860.48 531.549 924.571 377.291C944.576 329.138 1091.8 175.075 1091.8 175.075L1061.59 87.9547Z" fill="#000000" fill-rule="nonzero" opacity="1" stroke="#000000" stroke-linecap="butt" stroke-linejoin="miter" stroke-width="15.5672" vectornator:layerName="path"/>
<path d="M1020.36 321.277L1047.54 407.552L1020.16 432.523L976.051 350.158L953.318 263.448L1025.44 213.278L1020.36 321.277Z" fill="#000000" fill-rule="nonzero" opacity="1" stroke="none" vectornator:layerName="path"/>
<g opacity="1" vectornator:layerName="g">
<path d="M1059.9 78.072C1059.9 78.072 1110.5 51.5233 1126.54 47.7868C1142.59 44.0504 1159.48 43.424 1159.48 43.424L1222.73 55.684C1222.73 55.684 1249.9 41.357 1269.18 50.7597C1288.47 60.1624 1299.88 93.294 1299.88 93.294C1299.88 93.294 1312.71 126.115 1328.02 148.369C1331.55 153.493 1362.88 181.081 1362.88 181.081C1362.88 181.081 1364.1 189.44 1362.61 198.181C1361.1 206.923 1356.88 216.047 1356.88 216.047C1356.88 216.047 1338.04 217.837 1311.77 218.432C1285.5 219.028 1251.8 218.429 1251.8 218.429C1251.8 218.429 1234.07 216.641 1216.53 213.629C1199 210.617 1181.66 206.381 1181.66 206.381C1181.66 206.381 1148.53 213.753 1122.41 214.932C1096.28 216.112 1070.88 212.319 1070.88 212.319L1059.9 78.072Z" fill="#000000" fill-rule="nonzero" opacity="1" stroke="#000000" stroke-linecap="butt" stroke-linejoin="miter" stroke-width="0.0566256" vectornator:layerName="path"/>
<path d="M1216.59 100.341C1216.59 80.4759 1232.7 64.373 1252.56 64.373C1272.43 64.373 1288.53 80.4759 1288.53 100.341C1288.53 120.205 1272.43 136.309 1252.56 136.309C1232.7 136.309 1216.59 120.205 1216.59 100.341Z" fill="#ffffff" fill-rule="nonzero" opacity="1" stroke="#000000" stroke-linecap="butt" stroke-linejoin="miter" stroke-width="0.0566256" vectornator:layerName="path"/>
<path d="M1257.25 78.0213L1254.78 120.722" fill="none" opacity="1" stroke="#000000" stroke-linecap="round" stroke-linejoin="round" stroke-width="5.71918" vectornator:layerName="path"/>
<path d="M1232.08 185.416L1358.48 204.015" fill="none" opacity="1" stroke="#ffffff" stroke-linecap="round" stroke-linejoin="round" stroke-width="5.71918" vectornator:layerName="path"/>
</g>
<path d="M857.312 735.175C839.746 766.936 837.136 787.167 829.15 835.51C821.163 883.853 837.697 936.198 837.697 936.198C837.697 936.198 860.233 963.134 882.78 910.966C891.839 890.012 900.098 825.692 900.098 825.692L897.045 714.044C897.045 714.044 874.878 703.414 857.312 735.175Z" fill="#000000" fill-rule="nonzero" opacity="1" stroke="#000000" stroke-linecap="butt" stroke-linejoin="miter" stroke-width="1.3201" vectornator:layerName="path"/>
<path d="M1042.32 394.717L1065.31 444.126L1093.04 507.951L1070.89 559.306L1073.94 504.499L1046.12 552.968L1058.52 495.524C1058.52 495.524 1025.93 515.778 1015.07 522.532L1041.24 476.409L1003.38 399.592L1042.32 394.717Z" fill="#000000" fill-rule="nonzero" opacity="1" stroke="#000000" stroke-linecap="butt" stroke-linejoin="miter" stroke-width="1.31307" vectornator:layerName="path"/>
<path d="M768.661 687.797L856.969 756.832C856.969 756.832 915.293 758.684 902.179 722.027C889.065 685.371 804.52 610.205 804.52 610.205C758.042 661.79 768.661 687.797 768.661 687.797Z" fill="#000000" fill-rule="nonzero" opacity="1" stroke="#000000" stroke-linecap="round" stroke-linejoin="miter" stroke-width="1.3201" vectornator:layerName="path"/>
<path d="M879.612 923.598L974.884 910.102L940.417 929.277L978.145 929.936L936.228 942.957C936.228 942.957 874.509 942.838 869.093 944.265C863.676 945.692 845.291 942.5 845.291 942.5L879.612 923.598Z" fill="#000000" fill-rule="nonzero" opacity="1" stroke="#000000" stroke-linecap="butt" stroke-linejoin="miter" stroke-width="1.31307" vectornator:layerName="path"/>
<path d="M816.189 761.823C781.369 772.064 765.29 784.619 725.626 813.386C685.963 842.154 660.924 891.006 660.924 891.006C660.924 891.006 658.017 926.005 710.725 904.753C731.899 896.218 782.988 856.278 782.988 856.278L859.302 774.726C859.302 774.726 851.009 751.583 816.189 761.823Z" fill="#000000" fill-rule="nonzero" opacity="1" stroke="#000000" stroke-linecap="butt" stroke-linejoin="miter" stroke-width="1.3201" vectornator:layerName="path"/>
<path d="M728.808 697.332L819.406 763.335C819.406 763.335 877.759 763.209 863.41 727.018C849.061 690.827 762.018 618.57 762.018 618.57C717.314 671.701 728.808 697.332 728.808 697.332Z" fill="#000000" fill-rule="nonzero" opacity="1" stroke="#000000" stroke-linecap="round" stroke-linejoin="miter" stroke-width="1.3201" vectornator:layerName="path"/>
<path d="M700.206 898.707L791.317 929.655L751.906 931.214L785.276 948.826L741.994 941.531C741.994 941.531 686.97 913.574 681.492 912.403C676.015 911.233 661.048 900.087 661.048 900.087L700.206 898.707Z" fill="#000000" fill-rule="nonzero" opacity="1" stroke="#000000" stroke-linecap="butt" stroke-linejoin="miter" stroke-width="1.31307" vectornator:layerName="path"/>
</g>
</g>
</svg>
