<?xml version="1.0" encoding="UTF-8" standalone="no"?>
<!DOCTYPE svg PUBLIC "-//W3C//DTD SVG 1.1//EN" "http://www.w3.org/Graphics/SVG/1.1/DTD/svg11.dtd">
<!-- Created with Vectornator (http://vectornator.io/) -->
<svg height="100%" stroke-miterlimit="10" style="fill-rule:nonzero;clip-rule:evenodd;stroke-linecap:round;stroke-linejoin:round;" version="1.1" viewBox="0 0 1389.15 992.25" width="100%" xml:space="preserve" xmlns="http://www.w3.org/2000/svg" xmlns:vectornator="http://vectornator.io" xmlns:xlink="http://www.w3.org/1999/xlink">
<defs/>
<g id="Quadro-7" vectornator:layerName="Quadro 7">
<g opacity="1">
<path d="M760.629 522.243C760.629 522.243 632.481 688.287 411.682 719.014C190.88 749.749 28.4601 699.492 28.4601 699.492C28.4601 699.492-0.125637 708.833 130.047 750.074C145.029 754.823 160.115 759.274 175.127 763.299C320.568 802.261 459.181 801.038 459.181 801.038C459.181 801.038 593.719 796.497 687.33 744.434C780.933 692.38 833.603 592.813 833.603 592.813L760.629 522.243Z" fill="#000000" fill-rule="nonzero" opacity="1" stroke="#000000" stroke-linecap="butt" stroke-linejoin="miter" stroke-width="13.5093" vectornator:layerName="path"/>
<path d="M1061.59 101.098C1061.59 101.098 773.166 277.953 751.123 337.05C691.799 496.132 658.344 689.809 658.344 689.809C658.344 689.809 715.281 708.625 767.759 700.573C809.981 694.093 847.679 665.279 863.034 633.014C879.246 598.951 860.48 544.693 924.571 390.435C944.576 342.282 1091.8 188.219 1091.8 188.219L1061.59 101.098Z" fill="#000000" fill-rule="nonzero" opacity="1" stroke="#000000" stroke-linecap="butt" stroke-linejoin="miter" stroke-width="15.5672" vectornator:layerName="path"/>
<path d="M1020.36 334.421L1047.54 420.696L1020.16 445.667L976.051 363.301L953.318 276.592L1025.44 226.421L1020.36 334.421Z" fill="#000000" fill-rule="nonzero" opacity="1" stroke="none" vectornator:layerName="path"/>
<g opacity="1" vectornator:layerName="g">
<path d="M1059.9 91.2157C1059.9 91.2157 1110.5 64.667 1126.54 60.9306C1142.59 57.1941 1159.48 56.5678 1159.48 56.5678L1222.73 68.8277C1222.73 68.8277 1249.9 54.5007 1269.18 63.9034C1288.47 73.3062 1299.88 106.438 1299.88 106.438C1299.88 106.438 1312.71 139.259 1328.02 161.512C1331.55 166.637 1362.88 194.225 1362.88 194.225C1362.88 194.225 1364.1 202.583 1362.61 211.325C1361.1 220.067 1356.88 229.191 1356.88 229.191C1356.88 229.191 1338.04 230.98 1311.77 231.576C1285.5 232.172 1251.8 231.573 1251.8 231.573C1251.8 231.573 1234.07 229.785 1216.53 226.773C1199 223.761 1181.66 219.525 1181.66 219.525C1181.66 219.525 1148.53 226.897 1122.41 228.076C1096.28 229.255 1070.88 225.463 1070.88 225.463L1059.9 91.2157Z" fill="#000000" fill-rule="nonzero" opacity="1" stroke="#000000" stroke-linecap="butt" stroke-linejoin="miter" stroke-width="0.0566256" vectornator:layerName="path"/>
<path d="M1216.59 113.485C1216.59 93.6196 1232.7 77.5167 1252.56 77.5167C1272.43 77.5167 1288.53 93.6196 1288.53 113.485C1288.53 133.349 1272.43 149.453 1252.56 149.453C1232.7 149.453 1216.59 133.349 1216.59 113.485Z" fill="#ffffff" fill-rule="nonzero" opacity="1" stroke="#000000" stroke-linecap="butt" stroke-linejoin="miter" stroke-width="0.0566256" vectornator:layerName="path"/>
<path d="M1257.25 91.165L1254.78 133.866" fill="none" opacity="1" stroke="#000000" stroke-linecap="round" stroke-linejoin="round" stroke-width="5.71918" vectornator:layerName="path"/>
<path d="M1232.08 198.56L1358.48 217.159" fill="none" opacity="1" stroke="#ffffff" stroke-linecap="round" stroke-linejoin="round" stroke-width="5.71918" vectornator:layerName="path"/>
</g>
<path d="M867.925 742.878C837.082 762.01 824.921 778.388 794.335 816.668C763.75 854.947 752.604 908.699 752.604 908.699C752.604 908.699 759.108 943.21 804.267 908.707C822.409 894.849 861.038 842.761 861.038 842.761L912.917 743.852C912.917 743.852 898.768 723.747 867.925 742.878Z" fill="#000000" fill-rule="nonzero" opacity="1" stroke="#000000" stroke-linecap="butt" stroke-linejoin="miter" stroke-width="1.3201" vectornator:layerName="path"/>
<path d="M1042.32 407.861L1065.31 457.27L1093.04 521.095L1070.89 572.45L1073.94 517.643L1046.12 566.112L1058.52 508.667C1058.52 508.667 1025.93 528.922 1015.07 535.676L1041.24 489.553L1003.38 412.735L1042.32 407.861Z" fill="#000000" fill-rule="nonzero" opacity="1" stroke="#000000" stroke-linecap="butt" stroke-linejoin="miter" stroke-width="1.31307" vectornator:layerName="path"/>
<path d="M793.054 667.284L863.816 754.216C863.816 754.216 920.27 768.98 915.629 730.326C910.987 691.673 845.258 599.6 845.258 599.6C788.479 639.568 793.054 667.284 793.054 667.284Z" fill="#000000" fill-rule="nonzero" opacity="1" stroke="#000000" stroke-linecap="round" stroke-linejoin="miter" stroke-width="1.3201" vectornator:layerName="path"/>
<path d="M798.86 908.449L895.083 908.674L858.234 922.739L895.483 928.77L852.137 935.682C852.137 935.682 791.066 926.765 785.502 927.406C779.937 928.046 762.194 922.265 762.194 922.265L798.86 908.449Z" fill="#000000" fill-rule="nonzero" opacity="1" stroke="#000000" stroke-linecap="butt" stroke-linejoin="miter" stroke-width="1.31307" vectornator:layerName="path"/>
<path d="M786.881 740.401C756.038 759.533 743.877 775.911 713.292 814.191C682.706 852.47 671.56 906.221 671.56 906.221C671.56 906.221 678.065 940.733 723.223 906.23C741.365 892.372 779.994 840.284 779.994 840.284L831.874 741.375C831.874 741.375 817.725 721.27 786.881 740.401Z" fill="#000000" fill-rule="nonzero" opacity="1" stroke="#000000" stroke-linecap="butt" stroke-linejoin="miter" stroke-width="1.3201" vectornator:layerName="path"/>
<path d="M712.011 664.807L782.772 751.739C782.772 751.739 839.227 766.503 834.585 727.849C829.944 689.196 764.215 597.123 764.215 597.123C707.436 637.091 712.011 664.807 712.011 664.807Z" fill="#000000" fill-rule="nonzero" opacity="1" stroke="#000000" stroke-linecap="round" stroke-linejoin="miter" stroke-width="1.3201" vectornator:layerName="path"/>
<path d="M717.817 905.972L814.04 906.197L777.191 920.262L814.439 926.293L771.094 933.205C771.094 933.205 710.023 924.288 704.458 924.929C698.893 925.569 681.151 919.788 681.151 919.788L717.817 905.972Z" fill="#000000" fill-rule="nonzero" opacity="1" stroke="#000000" stroke-linecap="butt" stroke-linejoin="miter" stroke-width="1.31307" vectornator:layerName="path"/>
</g>
</g>
</svg>
