<?xml version="1.0" encoding="UTF-8" standalone="no"?>
<!DOCTYPE svg PUBLIC "-//W3C//DTD SVG 1.1//EN" "http://www.w3.org/Graphics/SVG/1.1/DTD/svg11.dtd">
<!-- Created with Vectornator (http://vectornator.io/) -->
<svg height="100%" stroke-miterlimit="10" style="fill-rule:nonzero;clip-rule:evenodd;stroke-linecap:round;stroke-linejoin:round;" version="1.1" viewBox="0 0 1389.15 992.25" width="100%" xml:space="preserve" xmlns="http://www.w3.org/2000/svg" xmlns:vectornator="http://vectornator.io" xmlns:xlink="http://www.w3.org/1999/xlink">
<defs/>
<g id="Quadro-0" vectornator:layerName="Quadro 0">
<path d="M985.311 372.376L1012.49 458.65L985.111 483.621L941.001 401.256L918.268 314.546L990.385 264.376L985.311 372.376Z" fill="#000000" fill-rule="nonzero" opacity="1" stroke="none" vectornator:layerName="path"/>
<path d="M1007.27 445.816L1030.26 495.225L1057.99 559.049L1035.83 610.405L1038.89 555.597L1011.07 604.066L1023.47 546.622C1023.47 546.622 990.884 566.876 980.021 573.631L1006.19 527.507L968.334 450.69L1007.27 445.816Z" fill="#000000" fill-rule="nonzero" opacity="1" stroke="#000000" stroke-linecap="butt" stroke-linejoin="miter" stroke-width="1.31307" vectornator:layerName="path"/>
<path d="M768.983 521.964C768.983 521.964 640.835 688.008 420.036 718.735C199.234 749.47 36.8142 699.213 36.8142 699.213C36.8142 699.213 8.22841 708.554 138.401 749.795C153.383 754.544 168.469 758.995 183.481 763.021C328.922 801.982 467.535 800.76 467.535 800.76C467.535 800.76 602.073 796.218 695.684 744.155C789.287 692.101 841.957 592.534 841.957 592.534L768.983 521.964Z" fill="#000000" fill-rule="nonzero" opacity="1" stroke="#000000" stroke-linecap="butt" stroke-linejoin="miter" stroke-width="13.5093" vectornator:layerName="path"/>
<path d="M1069.94 100.819C1069.94 100.819 781.52 277.674 759.477 336.771C700.153 495.853 666.698 689.53 666.698 689.53C666.698 689.53 723.635 708.346 776.113 700.294C818.336 693.814 856.033 665.001 871.388 632.735C887.6 598.672 868.834 544.414 932.925 390.156C952.93 342.003 1100.16 187.94 1100.16 187.94L1069.94 100.819Z" fill="#000000" fill-rule="nonzero" opacity="1" stroke="#000000" stroke-linecap="butt" stroke-linejoin="miter" stroke-width="15.5672" vectornator:layerName="path"/>
<path d="M1028.72 334.142L1055.9 420.417L1028.52 445.388L984.405 363.022L961.672 276.313L1033.79 226.142L1028.72 334.142Z" fill="#000000" fill-rule="nonzero" opacity="1" stroke="none" vectornator:layerName="path"/>
<g opacity="1" vectornator:layerName="g">
<path d="M1068.25 92.9368C1068.25 92.9368 1118.85 66.3881 1134.9 62.6517C1150.94 58.9152 1167.83 58.2889 1167.83 58.2889L1231.08 70.5488C1231.08 70.5488 1258.25 56.2218 1277.53 65.6246C1296.82 75.0273 1308.23 108.159 1308.23 108.159C1308.23 108.159 1321.06 140.98 1336.37 163.233C1339.9 168.358 1371.24 195.946 1371.24 195.946C1371.24 195.946 1372.46 204.305 1370.96 213.046C1369.46 221.788 1365.23 230.912 1365.23 230.912C1365.23 230.912 1346.39 232.702 1320.12 233.297C1293.85 233.893 1260.16 233.294 1260.16 233.294C1260.16 233.294 1242.42 231.506 1224.89 228.494C1207.35 225.482 1190.01 221.246 1190.01 221.246C1190.01 221.246 1156.89 228.618 1130.76 229.797C1104.63 230.976 1079.23 227.184 1079.23 227.184L1068.25 92.9368Z" fill="#000000" fill-rule="nonzero" opacity="1" stroke="#000000" stroke-linecap="butt" stroke-linejoin="miter" stroke-width="0.0566256" vectornator:layerName="path"/>
<path d="M1224.95 115.206C1224.95 95.3407 1241.05 79.2379 1260.91 79.2379C1280.79 79.2379 1296.89 95.3407 1296.89 115.206C1296.89 135.07 1280.79 151.174 1260.91 151.174C1241.05 151.174 1224.95 135.07 1224.95 115.206Z" fill="#ffffff" fill-rule="nonzero" opacity="1" stroke="#000000" stroke-linecap="butt" stroke-linejoin="miter" stroke-width="0.0566256" vectornator:layerName="path"/>
<path d="M1265.6 92.8861L1263.13 135.587" fill="none" opacity="1" stroke="#000000" stroke-linecap="round" stroke-linejoin="round" stroke-width="5.71918" vectornator:layerName="path"/>
<path d="M1240.43 200.281L1366.84 218.88" fill="none" opacity="1" stroke="#ffffff" stroke-linecap="round" stroke-linejoin="round" stroke-width="5.71918" vectornator:layerName="path"/>
</g>
<path d="M889.798 695.383C857.625 712.182 844.287 727.617 810.955 763.531C777.624 799.445 762.535 852.225 762.535 852.225C762.535 852.225 766.47 887.123 814.056 856.052C833.172 843.573 875.546 794.484 875.546 794.484L934.596 699.68C934.596 699.68 921.972 678.584 889.798 695.383Z" fill="#000000" fill-rule="nonzero" opacity="1" stroke="#000000" stroke-linecap="butt" stroke-linejoin="miter" stroke-width="1.3201" vectornator:layerName="path"/>
<path d="M1055.38 415.942L1078.37 465.351L1106.1 529.175L1083.94 580.531L1086.99 525.723L1059.18 574.192L1071.58 516.748C1071.58 516.748 1038.99 537.002 1028.13 543.757L1054.29 497.633L1016.44 420.816L1055.38 415.942Z" fill="#000000" fill-rule="nonzero" opacity="1" stroke="#000000" stroke-linecap="butt" stroke-linejoin="miter" stroke-width="1.31307" vectornator:layerName="path"/>
<path d="M811.917 625.519L882.679 712.451C882.679 712.451 939.133 727.215 934.492 688.561C929.85 649.907 864.121 557.835 864.121 557.835C807.342 597.803 811.917 625.519 811.917 625.519Z" fill="#000000" fill-rule="nonzero" opacity="1" stroke="#000000" stroke-linecap="round" stroke-linejoin="miter" stroke-width="1.3201" vectornator:layerName="path"/>
<path d="M787.324 854.951L881.642 874.003L842.753 880.585L878.1 893.789L834.24 892.084C834.24 892.084 776.096 871.387 770.513 870.926C764.931 870.465 748.663 861.324 748.663 861.324L787.324 854.951Z" fill="#000000" fill-rule="nonzero" opacity="1" stroke="#000000" stroke-linecap="butt" stroke-linejoin="miter" stroke-width="1.31307" vectornator:layerName="path"/>
<path d="M802.508 749.619C771.533 768.537 759.259 784.831 728.41 822.898C697.561 860.966 686.044 914.639 686.044 914.639C686.044 914.639 692.31 949.194 737.706 915.004C755.943 901.272 794.931 849.452 794.931 849.452L847.492 750.903C847.492 750.903 833.483 730.701 802.508 749.619Z" fill="#000000" fill-rule="nonzero" opacity="1" stroke="#000000" stroke-linecap="butt" stroke-linejoin="miter" stroke-width="1.3201" vectornator:layerName="path"/>
<path d="M720.365 664.528L791.126 751.46C791.126 751.46 847.581 766.224 842.939 727.571C838.298 688.917 772.569 596.844 772.569 596.844C715.79 636.812 720.365 664.528 720.365 664.528Z" fill="#000000" fill-rule="nonzero" opacity="1" stroke="#000000" stroke-linecap="round" stroke-linejoin="miter" stroke-width="1.3201" vectornator:layerName="path"/>
<path d="M726.698 912.967L822.488 922.09L784.496 932.688L821.027 942.137L777.228 945.011C777.228 945.011 717.243 930.484 711.643 930.607C706.043 930.73 688.911 923.333 688.911 923.333L726.698 912.967Z" fill="#000000" fill-rule="nonzero" opacity="1" stroke="#000000" stroke-linecap="butt" stroke-linejoin="miter" stroke-width="1.31307" vectornator:layerName="path"/>
</g>
</svg>
