<?xml version="1.0" encoding="UTF-8" standalone="no"?>
<!DOCTYPE svg PUBLIC "-//W3C//DTD SVG 1.1//EN" "http://www.w3.org/Graphics/SVG/1.1/DTD/svg11.dtd">
<!-- Created with Vectornator (http://vectornator.io/) -->
<svg height="100%" stroke-miterlimit="10" style="fill-rule:nonzero;clip-rule:evenodd;stroke-linecap:round;stroke-linejoin:round;" version="1.1" viewBox="0 0 1389.15 992.25" width="100%" xml:space="preserve" xmlns="http://www.w3.org/2000/svg" xmlns:vectornator="http://vectornator.io" xmlns:xlink="http://www.w3.org/1999/xlink">
<defs/>
<g id="Camada-3" vectornator:layerName="Camada 3">
<g opacity="1">
<path d="M760.629 501.086C760.629 501.086 632.481 667.131 411.682 697.858C190.88 728.593 28.4601 678.336 28.4601 678.336C28.4601 678.336-0.125637 687.677 130.047 728.918C145.029 733.667 160.115 738.117 175.127 742.143C320.568 781.105 459.181 779.882 459.181 779.882C459.181 779.882 593.719 775.341 687.33 723.278C780.933 671.224 833.603 571.657 833.603 571.657L760.629 501.086Z" fill="#000000" fill-rule="nonzero" opacity="1" stroke="#000000" stroke-linecap="butt" stroke-linejoin="miter" stroke-width="13.5093" vectornator:layerName="path"/>
<path d="M1061.59 79.9422C1061.59 79.9422 773.166 256.797 751.123 315.893C691.799 474.976 658.344 668.653 658.344 668.653C658.344 668.653 715.281 687.469 767.759 679.417C809.981 672.937 847.679 644.123 863.034 611.858C879.246 577.795 860.48 523.537 924.571 369.279C944.576 321.125 1091.8 167.063 1091.8 167.063L1061.59 79.9422Z" fill="#000000" fill-rule="nonzero" opacity="1" stroke="#000000" stroke-linecap="butt" stroke-linejoin="miter" stroke-width="15.5672" vectornator:layerName="path"/>
<path d="M1020.36 313.265L1047.54 399.54L1020.16 424.51L976.051 342.145L953.318 255.435L1025.44 205.265L1020.36 313.265Z" fill="#000000" fill-rule="nonzero" opacity="1" stroke="none" vectornator:layerName="path"/>
<g opacity="1" vectornator:layerName="g">
<path d="M1059.9 70.0595C1059.9 70.0595 1110.5 43.5109 1126.54 39.7744C1142.59 36.0379 1159.48 35.4116 1159.48 35.4116L1222.73 47.6715C1222.73 47.6715 1249.9 33.3445 1269.18 42.7473C1288.47 52.15 1299.88 85.2816 1299.88 85.2816C1299.88 85.2816 1312.71 118.103 1328.02 140.356C1331.55 145.481 1362.88 173.068 1362.88 173.068C1362.88 173.068 1364.1 181.427 1362.61 190.169C1361.1 198.911 1356.88 208.035 1356.88 208.035C1356.88 208.035 1338.04 209.824 1311.77 210.42C1285.5 211.015 1251.8 210.416 1251.8 210.416C1251.8 210.416 1234.07 208.629 1216.53 205.617C1199 202.605 1181.66 198.369 1181.66 198.369C1181.66 198.369 1148.53 205.741 1122.41 206.92C1096.28 208.099 1070.88 204.307 1070.88 204.307L1059.9 70.0595Z" fill="#000000" fill-rule="nonzero" opacity="1" stroke="#000000" stroke-linecap="butt" stroke-linejoin="miter" stroke-width="0.0566256" vectornator:layerName="path"/>
<path d="M1216.59 92.3286C1216.59 72.4635 1232.7 56.3606 1252.56 56.3606C1272.43 56.3606 1288.53 72.4635 1288.53 92.3286C1288.53 112.193 1272.43 128.297 1252.56 128.297C1232.7 128.297 1216.59 112.193 1216.59 92.3286Z" fill="#ffffff" fill-rule="nonzero" opacity="1" stroke="#000000" stroke-linecap="butt" stroke-linejoin="miter" stroke-width="0.0566256" vectornator:layerName="path"/>
<path d="M1257.25 70.0088L1254.78 112.709" fill="none" opacity="1" stroke="#000000" stroke-linecap="round" stroke-linejoin="round" stroke-width="5.71918" vectornator:layerName="path"/>
<path d="M1232.08 177.404L1358.48 196.003" fill="none" opacity="1" stroke="#ffffff" stroke-linecap="round" stroke-linejoin="round" stroke-width="5.71918" vectornator:layerName="path"/>
</g>
<path d="M851.113 760.747C821.301 781.448 810.003 798.433 781.438 838.243C752.872 878.053 744.52 932.308 744.52 932.308C744.52 932.308 752.801 966.437 796.115 929.645C813.516 914.868 849.4 860.853 849.4 860.853L896.096 759.393C896.096 759.393 880.926 740.047 851.113 760.747Z" fill="#000000" fill-rule="nonzero" opacity="1" stroke="#000000" stroke-linecap="butt" stroke-linejoin="miter" stroke-width="1.3201" vectornator:layerName="path"/>
<path d="M1042.32 386.705L1065.31 436.114L1093.04 499.938L1070.89 551.294L1073.94 496.486L1046.12 544.956L1058.52 487.511C1058.52 487.511 1025.93 507.766 1015.07 514.52L1041.24 468.396L1003.38 391.579L1042.32 386.705Z" fill="#000000" fill-rule="nonzero" opacity="1" stroke="#000000" stroke-linecap="butt" stroke-linejoin="miter" stroke-width="1.31307" vectornator:layerName="path"/>
<path d="M769.365 686.666L844.904 769.481C844.904 769.481 902.099 781.048 895.291 742.716C888.483 704.384 817.681 616.154 817.681 616.154C763.239 659.252 769.365 686.666 769.365 686.666Z" fill="#000000" fill-rule="nonzero" opacity="1" stroke="#000000" stroke-linecap="round" stroke-linejoin="miter" stroke-width="1.3201" vectornator:layerName="path"/>
<path d="M784.064 929.605L880.287 929.83L843.439 943.896L880.687 949.926L837.341 956.838C837.341 956.838 776.27 947.921 770.706 948.562C765.141 949.202 747.398 943.421 747.398 943.421L784.064 929.605Z" fill="#000000" fill-rule="nonzero" opacity="1" stroke="#000000" stroke-linecap="butt" stroke-linejoin="miter" stroke-width="1.31307" vectornator:layerName="path"/>
<path d="M775.764 746.204C739.623 749.543 721.426 758.764 676.963 779.35C632.499 799.936 598.516 843.048 598.516 843.048C598.516 843.048 588.92 876.831 644.735 866.133C667.156 861.838 724.985 832.492 724.985 832.492L815.583 767.172C815.583 767.172 811.905 742.865 775.764 746.204Z" fill="#000000" fill-rule="nonzero" opacity="1" stroke="#000000" stroke-linecap="butt" stroke-linejoin="miter" stroke-width="1.3201" vectornator:layerName="path"/>
<path d="M727.938 649.418L762.672 755.991C762.672 755.991 810.031 790.083 819.611 752.349C829.192 714.615 801.003 605.057 801.003 605.057C733.644 621.912 727.938 649.418 727.938 649.418Z" fill="#000000" fill-rule="nonzero" opacity="1" stroke="#000000" stroke-linecap="round" stroke-linejoin="miter" stroke-width="1.3201" vectornator:layerName="path"/>
<path d="M641.2 866.2L723.311 916.367L684.516 909.249L713.215 933.748L672.584 917.143C672.584 917.143 625.027 877.804 619.939 875.462C614.851 873.119 602.691 858.964 602.691 858.964L641.2 866.2Z" fill="#000000" fill-rule="nonzero" opacity="1" stroke="#000000" stroke-linecap="butt" stroke-linejoin="miter" stroke-width="1.31307" vectornator:layerName="path"/>
</g>
</g>
</svg>
